<?xml version="1.0" encoding="utf-8"?>
<!-- Generator: Adobe Illustrator 24.3.0, SVG Export Plug-In . SVG Version: 6.00 Build 0)  -->
<svg version="1.1" id="Camada_1" xmlns="http://www.w3.org/2000/svg" xmlns:xlink="http://www.w3.org/1999/xlink" x="0px" y="0px"
	 viewBox="0 0 92.6 40" style="enable-background:new 0 0 92.6 40;" xml:space="preserve">
<style type="text/css">
	.st0{fill:#FFFFFF;}
</style>
<g>
	<path class="st0" d="M45.1,1.3L34.6,18.9c-1.1,1.8-1.7,3.6-1.9,5.4h-4.1c0.3-2.2,1.2-4.3,3-7.4l7.3-12.3c1.5-2.4,2.9-3.3,5.6-3.3
		H45.1z"/>
	<path class="st0" d="M44.3,19.7c-0.8,0.7-2.3,1.8-3.5,1.8c-0.9,0-0.9-0.8-0.3-2c2.2-4.2,4.5-6.5,7.4-6.5h0.5L44.3,19.7z M48.1,10.7
		c-5.3,0-8.6,3.1-11.5,9.9c-0.7,1.7-1.1,3.8,1.3,3.8c1.4,0,3.7-0.8,5.4-1.9c-0.1,0.6-0.2,1.3-0.2,1.8H47c0.1-1.5,0.7-3.3,1.9-5.5
		l4.7-7.8C51.8,10.8,50,10.7,48.1,10.7"/>
	<path class="st0" d="M82.6,19.7c-0.8,0.7-2.3,1.8-3.5,1.8c-0.9,0-0.9-0.8-0.3-2c2.2-4.2,4.5-6.5,7.4-6.5h0.5L82.6,19.7z M86.5,10.7
		c-5.3,0-8.6,3.1-11.5,9.9c-0.7,1.7-1.1,3.8,1.3,3.8c1.4,0,3.7-0.8,5.4-1.9c-0.1,0.6-0.2,1.3-0.2,1.8h3.7c0.1-1.5,0.7-3.3,1.9-5.5
		l4.7-7.8C90.1,10.8,88.3,10.7,86.5,10.7"/>
	<path class="st0" d="M74.4,28h-1.2c-1.6,0-3-1.1-3.4-2.6l-1.9-7l-3.5,5.8h-4L71.6,5.5C73,3,74.5,2.2,77.1,2.2h0.4l-7.4,12.5
		l5.5-3.8h4.4l-9.3,6.4l0,0L74.4,28z"/>
	<path class="st0" d="M37.7,0.2c-3.7,0-5.7,1-9.4,3.6l-12.4,9H8c-2.3,0-4.1,0.1-5.6,1.5l-2.1,1.9c0,0,6-0.2,11.6-0.4L0,24.3h5.1
		l12.2-8.8c2.4-0.1,4-0.1,4-0.1c2.8-0.1,4.4-2.6,4.4-2.6h-4.7l9.8-7.1l-7.3,11.9c-1.6,2.7-2.3,4.7-2.6,6.8h4.2
		c0.2-1.8,0.8-3.6,1.9-5.4l10-16.6c0.7-1.1,1.3-2.1,1.3-2.1H37.7z"/>
	<path class="st0" d="M57.6,14.5c-0.1,0.4,0.1,0.6,0.8,1l1.1,0.7c1.2,0.8,1.7,2,1.6,3c-0.4,2.8-2.5,5-6.8,5c-1.9,0-2.8-0.1-5-0.4
		l1.7-2.8c1.6,0.3,2.5,0.4,3.6,0.4c1.6,0,2.3-0.7,2.4-1.3c0.1-0.4-0.1-0.8-0.9-1.3l-0.9-0.6c-1.4-1-1.8-1.9-1.6-3.1
		c0.4-2.5,3.2-4.4,7.2-4.4c1.2,0,2.6,0.1,4.1,0.2l-1.6,2.7c-1-0.1-2.6-0.2-3.7-0.1C58.4,13.6,57.6,14,57.6,14.5"/>
	<path class="st0" d="M88.6,22.6c0.5,0,0.9,0.4,0.9,0.9c0,0.5-0.4,0.9-0.9,0.9c-0.5,0-0.9-0.4-0.9-0.9C87.7,23,88.1,22.6,88.6,22.6
		 M88.6,24.1c0.4,0,0.7-0.3,0.7-0.7c0-0.4-0.3-0.7-0.7-0.7c-0.4,0-0.7,0.3-0.7,0.7C87.9,23.8,88.2,24.1,88.6,24.1 M88.5,23.9h-0.2
		V23h0.3c0.2,0,0.3,0.1,0.3,0.3c0,0.1-0.1,0.2-0.2,0.3l0.2,0.4h-0.2l-0.2-0.4h-0.1V23.9z M88.6,23.4c0.1,0,0.2-0.1,0.2-0.1
		c0-0.1-0.1-0.1-0.2-0.1h-0.1v0.3H88.6z"/>
	<path class="st0" d="M11.5,38H8.6L8,39.7H6.5l2.8-7.2h1.6l2.8,7.2h-1.5L11.5,38z M9,36.7h2L10,34L9,36.7z"/>
	<rect x="18.7" y="32.5" class="st0" width="1.4" height="7.2"/>
	<path class="st0" d="M28.3,36.9h-0.7v2.8h-1.4v-7.2H29c1.4,0,2.3,1,2.3,2.2c0,1-0.6,1.8-1.5,2l1.5,3h-1.6L28.3,36.9z M28.7,35.7
		c0.7,0,1.1-0.4,1.1-1c0-0.6-0.4-1-1.1-1h-1.1v2H28.7z"/>
	<polygon class="st0" points="37,39.7 37,32.5 38.4,32.5 38.4,38.3 41.6,38.3 41.6,39.7 	"/>
	<rect x="47.1" y="32.5" class="st0" width="1.4" height="7.2"/>
	<polygon class="st0" points="59.3,39.7 56,34.6 56,39.7 54.6,39.7 54.6,32.5 56.4,32.5 59.4,37.2 59.4,32.5 60.8,32.5 60.8,39.7 	
		"/>
	<polygon class="st0" points="66.9,39.7 66.9,32.5 71.4,32.5 71.4,33.8 68.3,33.8 68.3,35.4 71.1,35.4 71.1,36.7 68.3,36.7 
		68.3,38.4 71.4,38.4 71.4,39.7 	"/>
	<path class="st0" d="M80.8,34.6c-0.1-0.4-0.4-1-1.3-1c-0.7,0-1.1,0.4-1.1,0.9c0,0.4,0.3,0.7,0.8,0.8l1,0.2c1.3,0.3,2,1.1,2,2.1
		c0,1.1-0.9,2.2-2.6,2.2c-1.9,0-2.8-1.2-2.9-2.3l1.3-0.3c0.1,0.7,0.6,1.4,1.6,1.4c0.8,0,1.2-0.4,1.2-0.9c0-0.4-0.3-0.7-0.9-0.9
		l-1-0.2c-1.2-0.2-1.9-1-1.9-2.1c0-1.3,1.2-2.3,2.5-2.3c1.8,0,2.4,1.1,2.6,1.9L80.8,34.6z"/>
</g>
</svg>
